<svg xmlns="http://www.w3.org/2000/svg" xmlns:xlink="http://www.w3.org/1999/xlink" version="1.1" x="0px" y="0px" viewBox="0 0 24 30" enable-background="new 0 0 24 24" xml:space="preserve"><g><path d="M23.414,0.586c-0.781-0.781-2.047-0.781-2.828,0L11,10.171L7.414,6.586c-0.78-0.781-2.048-0.781-2.828,0   c-0.781,0.781-0.781,2.047,0,2.828l5,5C9.976,14.805,10.488,15,11,15s1.024-0.195,1.414-0.586l11-11   C24.195,2.633,24.195,1.367,23.414,0.586z"/><path d="M21,10c-0.553,0-1,0.448-1,1v7c0,1.103-0.897,2-2,2H4c-1.103,0-2-0.897-2-2V4c0-1.103,0.897-2,2-2h11c0.553,0,1-0.448,1-1   s-0.447-1-1-1H4C1.8,0,0,1.8,0,4v14c0,2.2,1.8,4,4,4h14c2.2,0,4-1.8,4-4v-7C22,10.448,21.553,10,21,10z"/></g><text x="0" y="39" fill="#000000" font-size="5px" font-weight="bold" font-family="'Helvetica Neue', Helvetica, Arial-Unicode, Arial, Sans-serif">Created by Rflor</text><text x="0" y="44" fill="#000000" font-size="5px" font-weight="bold" font-family="'Helvetica Neue', Helvetica, Arial-Unicode, Arial, Sans-serif">from the Noun Project</text></svg>